<svg xmlns="http://www.w3.org/2000/svg" version="1.1" xmlns:xlink="http://www.w3.org/1999/xlink" xmlns:svgjs="http://svgjs.dev/svgjs" width="1500" height="200" viewBox="0 0 1500 200"><g transform="matrix(1,0,0,1,-0.9090909090909918,-0.8425460358404564)"><svg viewBox="0 0 396 53" data-background-color="#ffffff" preserveAspectRatio="xMidYMid meet" height="200" width="1500" xmlns="http://www.w3.org/2000/svg" xmlns:xlink="http://www.w3.org/1999/xlink"><g id="tight-bounds" transform="matrix(1,0,0,1,0.2400000000000091,0.22327469949772194)"><svg viewBox="0 0 395.52 52.55345060100458" height="52.55345060100458" width="395.52"><g><svg viewBox="0 0 494.7521256803891 65.73860082091004" height="52.55345060100458" width="395.52"><g></g><g transform="matrix(1,0,0,1,99.23212568038912,0.1635288577634526)"><svg viewBox="0 0 395.52 65.41154310538313" height="65.41154310538313" width="395.52"><g id="textblocktransform"><svg viewBox="0 0 395.52 65.41154310538313" height="65.41154310538313" width="395.52" id="textblock"><g><svg viewBox="0 0 395.52 65.41154310538313" height="65.41154310538313" width="395.52"><g transform="matrix(1,0,0,1,0,0)"><svg width="395.52" viewBox="4.88 -33.28 261.73 43.290850697216996" height="65.41154310538313" data-palette-color="url(#e5b451e0-23f6-4153-80ea-729086a0b68a)"></svg></g></svg></g></svg></g></svg></g><g transform="matrix(1,0,0,1,0,0.1635288577634526)"><svg viewBox="0 0 62.44905431814033 65.41154310538313" height="65.41154310538313" width="62.44905431814033"><g><svg version="1.0" xmlns="http://www.w3.org/2000/svg" xmlns:xlink="http://www.w3.org/1999/xlink" x="0" y="0" viewBox="0 0 95.471 100" enable-background="new 0 0 95.471 100" xml:space="preserve" width="62.44905431814033" height="65.41154310538313" class="icon-icon-0" data-fill-palette-color="accent" id="icon-0"></svg></g></svg></g></svg></g><defs></defs><mask id="7f02835f-95b2-4efe-a79a-31b51f663e60"><g id="SvgjsG1081"><svg viewBox="0 0 395.52 52.55345060100458" height="52.55345060100458" width="395.52"><g><svg viewBox="0 0 494.7521256803891 65.73860082091004" height="52.55345060100458" width="395.52"><g><rect width="5.898880461955936" height="65.73860082091004" x="77.89114976828675" y="0" fill="white" opacity="1" stroke-width="0" stroke="transparent" fill-opacity="1" class="rect-qz-0" rx="1%" id="SvgjsRect1080" data-palette-color="url(#e5b451e0-23f6-4153-80ea-729086a0b68a)"></rect></g><g transform="matrix(1,0,0,1,99.23212568038912,0.1635288577634526)"><svg viewBox="0 0 395.52 65.41154310538313" height="65.41154310538313" width="395.52"><g id="SvgjsG1079"><svg viewBox="0 0 395.52 65.41154310538313" height="65.41154310538313" width="395.52" id="SvgjsSvg1078"><g><svg viewBox="0 0 395.52 65.41154310538313" height="65.41154310538313" width="395.52"><g transform="matrix(1,0,0,1,0,0)"><svg width="395.52" viewBox="4.88 -33.28 261.73 43.290850697216996" height="65.41154310538313" data-palette-color="url(#e5b451e0-23f6-4153-80ea-729086a0b68a)"><path d="M23.07-28.98Q23.9-28.98 24.26-28.6 24.61-28.22 24.61-27.32L24.61-27.32Q24.61-26.42 24.26-26.04 23.9-25.66 23.07-25.66L23.07-25.66 16.82-25.66 16.82-3.32 23.56-3.32Q24.39-3.32 24.74-2.94 25.1-2.56 25.1-1.66L25.1-1.66Q25.1-0.76 24.74-0.38 24.39 0 23.56 0L23.56 0 6.42 0Q5.59 0 5.24-0.38 4.88-0.76 4.88-1.66L4.88-1.66Q4.88-2.56 5.24-2.94 5.59-3.32 6.42-3.32L6.42-3.32 13.16-3.32 13.16-25.66 6.91-25.66Q6.08-25.66 5.73-26.04 5.37-26.42 5.37-27.32L5.37-27.32Q5.37-28.22 5.73-28.6 6.08-28.98 6.91-28.98L6.91-28.98 23.07-28.98ZM59.06-3.32Q59.89-3.32 60.24-2.94 60.59-2.56 60.59-1.66L60.59-1.66Q60.59-0.76 60.24-0.38 59.89 0 59.06 0L59.06 0 55.42 0Q54.59 0 54.23-0.38 53.88-0.76 53.88-1.66L53.88-1.66 53.88-16.11Q53.88-17.8 53.33-18.64 52.78-19.48 51.56-19.48L51.56-19.48Q50.41-19.48 49.44-18.42 48.46-17.36 47.89-15.47 47.31-13.57 47.31-11.16L47.31-11.16 47.31-3.32 48.7-3.32Q49.53-3.32 49.89-2.94 50.24-2.56 50.24-1.66L50.24-1.66Q50.24-0.76 49.89-0.38 49.53 0 48.7 0L48.7 0 45.19 0Q44.36 0 44-0.38 43.65-0.76 43.65-1.66L43.65-1.66 43.65-16.11Q43.65-17.8 43.1-18.64 42.55-19.48 41.33-19.48L41.33-19.48Q40.18-19.48 39.21-18.42 38.23-17.36 37.66-15.47 37.08-13.57 37.08-11.16L37.08-11.16 37.08-3.32 38.35-3.32Q39.18-3.32 39.54-2.94 39.89-2.56 39.89-1.66L39.89-1.66Q39.89-0.76 39.54-0.38 39.18 0 38.35 0L38.35 0 31.42 0Q30.59 0 30.23-0.38 29.88-0.76 29.88-1.66L29.88-1.66Q29.88-2.56 30.23-2.94 30.59-3.32 31.42-3.32L31.42-3.32 33.42-3.32 33.42-19.24 31.42-19.24Q30.59-19.24 30.23-19.62 29.88-20 29.88-20.9L29.88-20.9Q29.88-21.8 30.23-22.18 30.59-22.56 31.42-22.56L31.42-22.56 35.06-22.56Q35.89-22.56 36.24-22.18 36.59-21.8 36.59-20.9L36.59-20.9 36.59-18.48Q37.64-20.78 39.11-21.94 40.57-23.1 42.28-23.1L42.28-23.1Q43.94-23.1 45.19-21.97 46.43-20.85 46.87-18.68L46.87-18.68Q49.05-23.1 52.49-23.1L52.49-23.1Q53.93-23.1 55.06-22.38 56.2-21.66 56.87-20.18 57.54-18.7 57.54-16.55L57.54-16.55 57.54-3.32 59.06-3.32ZM75.04-23.1Q79.63-23.1 81.93-21.04 84.22-18.99 84.22-14.97L84.22-14.97 84.22-5.25Q84.22-3.32 85.83-3.32L85.83-3.32 86.69-3.32Q87.52-3.32 87.87-2.94 88.23-2.56 88.23-1.66L88.23-1.66Q88.23-0.76 87.87-0.38 87.52 0 86.69 0L86.69 0 85.13 0Q83.54 0 82.4-0.79 81.27-1.59 80.93-3.13L80.93-3.13Q78.93-1.37 76.59-0.42 74.26 0.54 71.65 0.54L71.65 0.54Q69.18 0.54 67.29-0.31 65.4-1.15 64.33-2.76 63.25-4.37 63.25-6.59L63.25-6.59Q63.25-10.45 66.01-12.29 68.77-14.14 73.14-14.14L73.14-14.14Q77.02-14.14 80.56-12.89L80.56-12.89 80.56-14.97Q80.56-17.33 79.23-18.44 77.9-19.56 74.95-19.56L74.95-19.56Q73.12-19.56 71.14-19.04 69.16-18.53 67.38-17.63L67.38-17.63Q66.96-17.41 66.62-17.41L66.62-17.41Q65.82-17.41 65.28-18.58L65.28-18.58Q65.01-19.17 65.01-19.56L65.01-19.56Q65.01-20.41 65.91-20.87L65.91-20.87Q67.96-21.95 70.32-22.52 72.68-23.1 75.04-23.1L75.04-23.1ZM73.16-10.69Q70.36-10.69 68.73-9.73 67.11-8.76 67.11-6.67L67.11-6.67Q67.11-4.88 68.34-3.89 69.58-2.91 71.8-2.91L71.8-2.91Q76.66-2.91 80.56-6.93L80.56-6.93 80.56-9.59Q78.9-10.13 77-10.41 75.09-10.69 73.16-10.69L73.16-10.69ZM103.58-23.1Q105.97-23.1 108-22.02 110.03-20.95 111.56-18.95L111.56-18.95 111.56-20.9Q111.56-21.8 111.92-22.18 112.27-22.56 113.1-22.56L113.1-22.56 116.98-22.56Q117.81-22.56 118.17-22.18 118.52-21.8 118.52-20.9L118.52-20.9Q118.52-20 118.17-19.62 117.81-19.24 116.98-19.24L116.98-19.24 114.98-19.24 114.98 0.73Q114.98 3.64 113.75 5.73 112.52 7.81 110.17 8.91 107.83 10.01 104.53 10.01L104.53 10.01Q102.19 10.01 99.8 9.61 97.4 9.2 95.33 8.45L95.33 8.45Q94.38 8.11 94.38 7.15L94.38 7.15Q94.38 6.76 94.57 6.18L94.57 6.18Q95.01 4.83 95.96 4.83L95.96 4.83Q96.23 4.83 96.5 4.93L96.5 4.93Q98.41 5.62 100.51 6.01 102.6 6.4 104.53 6.4L104.53 6.4Q107.9 6.4 109.61 4.8 111.32 3.2 111.32 0.42L111.32 0.42 111.32-4.49Q108.29-0.68 103.58-0.68L103.58-0.68Q100.55-0.68 98.16-2.04 95.77-3.39 94.4-5.93 93.03-8.47 93.03-11.89L93.03-11.89Q93.03-15.31 94.4-17.85 95.77-20.39 98.16-21.74 100.55-23.1 103.58-23.1L103.58-23.1ZM103.83-19.48Q101.65-19.48 100.09-18.52 98.53-17.55 97.71-15.83 96.89-14.11 96.89-11.89L96.89-11.89Q96.89-9.67 97.71-7.95 98.53-6.23 100.09-5.26 101.65-4.3 103.83-4.3L103.83-4.3Q106-4.3 107.7-5.2 109.39-6.1 110.36-7.82 111.32-9.55 111.32-11.89L111.32-11.89Q111.32-14.23 110.36-15.95 109.39-17.68 107.7-18.58 106-19.48 103.83-19.48L103.83-19.48ZM135.78-22.56Q136.61-22.56 136.97-22.18 137.32-21.8 137.32-20.9L137.32-20.9 137.32-3.32 145.16-3.32Q145.99-3.32 146.34-2.94 146.69-2.56 146.69-1.66L146.69-1.66Q146.69-0.76 146.34-0.38 145.99 0 145.16 0L145.16 0 126.02 0Q125.19 0 124.83-0.38 124.48-0.76 124.48-1.66L124.48-1.66Q124.48-2.56 124.83-2.94 125.19-3.32 126.02-3.32L126.02-3.32 133.66-3.32 133.66-19.24 127.48-19.24Q126.65-19.24 126.3-19.62 125.94-20 125.94-20.9L125.94-20.9Q125.94-21.8 126.3-22.18 126.65-22.56 127.48-22.56L127.48-22.56 135.78-22.56ZM135-33.28Q136.34-33.28 136.83-32.92 137.32-32.57 137.32-31.69L137.32-31.69 137.32-28.52Q137.32-27.64 136.83-27.28 136.34-26.93 135-26.93L135-26.93Q133.66-26.93 133.17-27.28 132.68-27.64 132.68-28.52L132.68-28.52 132.68-31.69Q132.68-32.57 133.17-32.92 133.66-33.28 135-33.28L135-33.28ZM169.42-32.15Q172.69-32.15 175.92-30.91L175.92-30.91Q177.09-30.47 177.09-29.3L177.09-29.3Q177.09-29.03 177.01-28.66L177.01-28.66Q176.67-27.27 175.79-27.27L175.79-27.27Q175.52-27.27 175.21-27.39L175.21-27.39Q172.11-28.59 169.42-28.59L169.42-28.59Q164.49-28.59 164.49-23.29L164.49-23.29 164.49-20.61 172.94-20.61Q173.77-20.61 174.12-20.23 174.47-19.85 174.47-18.95L174.47-18.95Q174.47-18.04 174.12-17.66 173.77-17.29 172.94-17.29L172.94-17.29 164.49-17.29 164.49-3.32 172.94-3.32Q173.77-3.32 174.12-2.94 174.47-2.56 174.47-1.66L174.47-1.66Q174.47-0.76 174.12-0.38 173.77 0 172.94 0L172.94 0 155.99 0Q155.16 0 154.81-0.38 154.46-0.76 154.46-1.66L154.46-1.66Q154.46-2.56 154.81-2.94 155.16-3.32 155.99-3.32L155.99-3.32 160.83-3.32 160.83-17.29 155.99-17.29Q155.16-17.29 154.81-17.66 154.46-18.04 154.46-18.95L154.46-18.95Q154.46-19.85 154.81-20.23 155.16-20.61 155.99-20.61L155.99-20.61 160.83-20.61 160.83-23.61Q160.83-27.64 163.09-29.9 165.34-32.15 169.42-32.15L169.42-32.15ZM207.09-22.56Q207.92-22.56 208.27-22.18 208.63-21.8 208.63-20.9L208.63-20.9Q208.63-20 208.27-19.62 207.92-19.24 207.09-19.24L207.09-19.24 205.58-19.24 195.59 1.22Q194 4.47 192.49 6.32 190.98 8.18 189.08 9.05 187.19 9.91 184.48 10.01L184.48 10.01Q183.63 10.03 183.16 9.58 182.7 9.13 182.7 7.98L182.7 7.98Q182.7 6.4 183.99 6.32L183.99 6.32Q186.34 6.2 187.72 5.54 189.1 4.88 190.26 3.28 191.42 1.68 193.1-1.71L193.1-1.71 184.16-19.24 182.63-19.24Q181.8-19.24 181.44-19.62 181.09-20 181.09-20.9L181.09-20.9Q181.09-21.8 181.44-22.18 181.8-22.56 182.63-22.56L182.63-22.56 191.27-22.56Q192.1-22.56 192.45-22.18 192.81-21.8 192.81-20.9L192.81-20.9Q192.81-20 192.45-19.62 192.1-19.24 191.27-19.24L191.27-19.24 188.14-19.24 195.03-5.52 201.6-19.24 199.42-19.24Q198.59-19.24 198.24-19.62 197.89-20 197.89-20.9L197.89-20.9Q197.89-21.8 198.24-22.18 198.59-22.56 199.42-22.56L199.42-22.56 207.09-22.56ZM225.47-28.98Q226.45-28.98 227.05-28.6 227.64-28.22 227.94-27.39L227.94-27.39 236.55-3.32 238.04-3.32Q238.87-3.32 239.23-2.94 239.58-2.56 239.58-1.66L239.58-1.66Q239.58-0.76 239.23-0.38 238.87 0 238.04 0L238.04 0 229.4 0Q228.57 0 228.22-0.38 227.86-0.76 227.86-1.66L227.86-1.66Q227.86-2.56 228.22-2.94 228.57-3.32 229.4-3.32L229.4-3.32 232.7-3.32 230.7-9.13 218.85-9.13 216.83-3.32 219.78-3.32Q220.61-3.32 220.97-2.94 221.32-2.56 221.32-1.66L221.32-1.66Q221.32-0.76 220.97-0.38 220.61 0 219.78 0L219.78 0 211.63 0Q210.8 0 210.44-0.38 210.09-0.76 210.09-1.66L210.09-1.66Q210.09-2.56 210.44-2.94 210.8-3.32 211.63-3.32L211.63-3.32 213-3.32 221.08-25.66 216.51-25.66Q215.68-25.66 215.33-26.04 214.97-26.42 214.97-27.32L214.97-27.32Q214.97-28.22 215.33-28.6 215.68-28.98 216.51-28.98L216.51-28.98 225.47-28.98ZM225.03-25.66L224.57-25.66 220-12.45 229.57-12.45 225.03-25.66ZM255.69-22.56Q256.52-22.56 256.88-22.18 257.23-21.8 257.23-20.9L257.23-20.9 257.23-3.32 265.07-3.32Q265.9-3.32 266.25-2.94 266.61-2.56 266.61-1.66L266.61-1.66Q266.61-0.76 266.25-0.38 265.9 0 265.07 0L265.07 0 245.93 0Q245.1 0 244.74-0.38 244.39-0.76 244.39-1.66L244.39-1.66Q244.39-2.56 244.74-2.94 245.1-3.32 245.93-3.32L245.93-3.32 253.57-3.32 253.57-19.24 247.39-19.24Q246.56-19.24 246.21-19.62 245.85-20 245.85-20.9L245.85-20.9Q245.85-21.8 246.21-22.18 246.56-22.56 247.39-22.56L247.39-22.56 255.69-22.56ZM254.91-33.28Q256.25-33.28 256.74-32.92 257.23-32.57 257.23-31.69L257.23-31.69 257.23-28.52Q257.23-27.64 256.74-27.28 256.25-26.93 254.91-26.93L254.91-26.93Q253.57-26.93 253.08-27.28 252.59-27.64 252.59-28.52L252.59-28.52 252.59-31.69Q252.59-32.57 253.08-32.92 253.57-33.28 254.91-33.28L254.91-33.28Z" opacity="1" transform="matrix(1,0,0,1,0,0)" fill="white" class="wordmark-text-0" id="SvgjsPath1077"></path></svg></g></svg></g></svg></g></svg></g><g transform="matrix(1,0,0,1,0,0.1635288577634526)"><svg viewBox="0 0 62.44905431814033 65.41154310538313" height="65.41154310538313" width="62.44905431814033"><g><svg version="1.0" xmlns="http://www.w3.org/2000/svg" xmlns:xlink="http://www.w3.org/1999/xlink" x="0" y="0" viewBox="0 0 95.471 100" enable-background="new 0 0 95.471 100" xml:space="preserve" width="62.44905431814033" height="65.41154310538313" class="icon-icon-0" data-fill-palette-color="accent" id="SvgjsSvg1076"><path d="M47.735 0c-0.083 2.825-1.738 13.412-19.799 30.934C10.554 47.797 2.439 49.824 0 50c2.439 0.178 10.554 2.204 27.936 19.066C45.997 86.589 47.652 97.177 47.735 100c0.083-2.823 1.739-13.411 19.798-30.934C84.917 52.204 93.031 50.178 95.471 50c-2.439-0.176-10.554-2.203-27.938-19.066C49.475 13.412 47.819 2.825 47.735 0z" fill="black"></path></svg></g></svg></g></svg></g><defs><mask></mask></defs></svg><rect width="395.52" height="52.55345060100458" fill="black" stroke="none" visibility="hidden"></rect></g></mask><linearGradient x1="0" x2="1" y1="0.578" y2="0.595" id="e5b451e0-23f6-4153-80ea-729086a0b68a"><stop stop-color="#6ee2f5" offset="0"></stop><stop stop-color="#6454f0" offset="1"></stop></linearGradient><rect width="395.52" height="52.55345060100458" fill="url(#e5b451e0-23f6-4153-80ea-729086a0b68a)" mask="url(#7f02835f-95b2-4efe-a79a-31b51f663e60)" data-fill-palette-color="primary"></rect><mask id="a636183a-e751-43e5-b8df-a3688f04bb98"><g id="SvgjsG1091"><svg viewBox="0 0 395.52 52.55345060100458" height="52.55345060100458" width="395.52"><g><svg viewBox="0 0 494.7521256803891 65.73860082091004" height="52.55345060100458" width="395.52"><g></g><g transform="matrix(1,0,0,1,99.23212568038912,0.1635288577634526)"><svg viewBox="0 0 395.52 65.41154310538313" height="65.41154310538313" width="395.52"><g id="SvgjsG1090"><svg viewBox="0 0 395.52 65.41154310538313" height="65.41154310538313" width="395.52" id="SvgjsSvg1089"><g><svg viewBox="0 0 395.52 65.41154310538313" height="65.41154310538313" width="395.52"><g transform="matrix(1,0,0,1,0,0)"><svg width="395.52" viewBox="4.88 -33.28 261.73 43.290850697216996" height="65.41154310538313" data-palette-color="url(#e5b451e0-23f6-4153-80ea-729086a0b68a)"></svg></g></svg></g></svg></g></svg></g><g transform="matrix(1,0,0,1,0,0.1635288577634526)"><svg viewBox="0 0 62.44905431814033 65.41154310538313" height="65.41154310538313" width="62.44905431814033"><g><svg version="1.0" xmlns="http://www.w3.org/2000/svg" xmlns:xlink="http://www.w3.org/1999/xlink" x="0" y="0" viewBox="0 0 95.471 100" enable-background="new 0 0 95.471 100" xml:space="preserve" width="62.44905431814033" height="65.41154310538313" class="icon-icon-0" data-fill-palette-color="accent" id="SvgjsSvg1088"><path d="M47.735 0c-0.083 2.825-1.738 13.412-19.799 30.934C10.554 47.797 2.439 49.824 0 50c2.439 0.178 10.554 2.204 27.936 19.066C45.997 86.589 47.652 97.177 47.735 100c0.083-2.823 1.739-13.411 19.798-30.934C84.917 52.204 93.031 50.178 95.471 50c-2.439-0.176-10.554-2.203-27.938-19.066C49.475 13.412 47.819 2.825 47.735 0z" fill="white"></path></svg></g></svg></g></svg></g><defs><mask></mask></defs><mask><g id="SvgjsG1087"><svg viewBox="0 0 395.52 52.55345060100458" height="52.55345060100458" width="395.52"><g><svg viewBox="0 0 494.7521256803891 65.73860082091004" height="52.55345060100458" width="395.52"><g><rect width="5.898880461955936" height="65.73860082091004" x="77.89114976828675" y="0" fill="black" opacity="1" stroke-width="0" stroke="transparent" fill-opacity="1" class="rect-qz-0" rx="1%" id="SvgjsRect1086" data-palette-color="url(#e5b451e0-23f6-4153-80ea-729086a0b68a)"></rect></g><g transform="matrix(1,0,0,1,99.23212568038912,0.1635288577634526)"><svg viewBox="0 0 395.52 65.41154310538313" height="65.41154310538313" width="395.52"><g id="SvgjsG1085"><svg viewBox="0 0 395.52 65.41154310538313" height="65.41154310538313" width="395.52" id="SvgjsSvg1084"><g><svg viewBox="0 0 395.52 65.41154310538313" height="65.41154310538313" width="395.52"><g transform="matrix(1,0,0,1,0,0)"><svg width="395.52" viewBox="4.88 -33.28 261.73 43.290850697216996" height="65.41154310538313" data-palette-color="url(#e5b451e0-23f6-4153-80ea-729086a0b68a)"><path d="M23.07-28.98Q23.9-28.98 24.26-28.6 24.61-28.22 24.61-27.32L24.61-27.32Q24.61-26.42 24.26-26.04 23.9-25.66 23.07-25.66L23.07-25.66 16.82-25.66 16.82-3.32 23.56-3.32Q24.39-3.32 24.74-2.94 25.1-2.56 25.1-1.66L25.1-1.66Q25.1-0.76 24.74-0.38 24.39 0 23.56 0L23.56 0 6.42 0Q5.59 0 5.24-0.38 4.88-0.76 4.88-1.66L4.88-1.66Q4.88-2.56 5.24-2.94 5.59-3.32 6.42-3.32L6.42-3.32 13.16-3.32 13.16-25.66 6.91-25.66Q6.08-25.66 5.73-26.04 5.37-26.42 5.37-27.32L5.37-27.32Q5.37-28.22 5.73-28.6 6.08-28.98 6.91-28.98L6.91-28.98 23.07-28.98ZM59.06-3.32Q59.89-3.32 60.24-2.94 60.59-2.56 60.59-1.66L60.59-1.66Q60.59-0.76 60.24-0.38 59.89 0 59.06 0L59.06 0 55.42 0Q54.59 0 54.23-0.38 53.88-0.76 53.88-1.66L53.88-1.66 53.88-16.11Q53.88-17.8 53.33-18.64 52.78-19.48 51.56-19.48L51.56-19.48Q50.41-19.48 49.44-18.42 48.46-17.36 47.89-15.47 47.31-13.57 47.31-11.16L47.31-11.16 47.31-3.32 48.7-3.32Q49.53-3.32 49.89-2.94 50.24-2.56 50.24-1.66L50.24-1.66Q50.24-0.76 49.89-0.38 49.53 0 48.7 0L48.7 0 45.19 0Q44.36 0 44-0.38 43.65-0.76 43.65-1.66L43.65-1.66 43.65-16.11Q43.65-17.8 43.1-18.64 42.55-19.48 41.33-19.48L41.33-19.48Q40.18-19.48 39.21-18.42 38.23-17.36 37.66-15.47 37.08-13.57 37.08-11.16L37.08-11.16 37.08-3.32 38.35-3.32Q39.18-3.32 39.54-2.94 39.89-2.56 39.89-1.66L39.89-1.66Q39.89-0.76 39.54-0.38 39.18 0 38.35 0L38.35 0 31.42 0Q30.59 0 30.23-0.38 29.88-0.76 29.88-1.66L29.88-1.66Q29.88-2.56 30.23-2.94 30.59-3.32 31.42-3.32L31.42-3.32 33.42-3.32 33.42-19.24 31.42-19.24Q30.59-19.24 30.23-19.62 29.88-20 29.88-20.9L29.88-20.9Q29.88-21.8 30.23-22.18 30.59-22.56 31.42-22.56L31.42-22.56 35.06-22.56Q35.89-22.56 36.24-22.18 36.59-21.8 36.59-20.9L36.59-20.9 36.59-18.48Q37.64-20.78 39.11-21.94 40.57-23.1 42.28-23.1L42.28-23.1Q43.94-23.1 45.19-21.97 46.43-20.85 46.87-18.68L46.87-18.68Q49.05-23.1 52.49-23.1L52.49-23.1Q53.93-23.1 55.06-22.38 56.2-21.66 56.87-20.18 57.54-18.7 57.54-16.55L57.54-16.55 57.54-3.32 59.06-3.32ZM75.04-23.1Q79.63-23.1 81.93-21.04 84.22-18.99 84.22-14.97L84.22-14.97 84.22-5.25Q84.22-3.32 85.83-3.32L85.83-3.32 86.69-3.32Q87.52-3.32 87.87-2.94 88.23-2.56 88.23-1.66L88.23-1.66Q88.23-0.76 87.87-0.38 87.52 0 86.69 0L86.69 0 85.13 0Q83.54 0 82.4-0.79 81.27-1.59 80.93-3.13L80.93-3.13Q78.93-1.37 76.59-0.42 74.26 0.54 71.65 0.54L71.65 0.54Q69.18 0.54 67.29-0.31 65.4-1.15 64.33-2.76 63.25-4.37 63.25-6.59L63.25-6.59Q63.25-10.45 66.01-12.29 68.77-14.14 73.14-14.14L73.14-14.14Q77.02-14.14 80.56-12.89L80.56-12.89 80.56-14.97Q80.56-17.33 79.23-18.44 77.9-19.56 74.95-19.56L74.95-19.56Q73.12-19.56 71.14-19.04 69.16-18.53 67.38-17.63L67.38-17.63Q66.96-17.41 66.62-17.41L66.62-17.41Q65.82-17.41 65.28-18.58L65.28-18.58Q65.01-19.17 65.01-19.56L65.01-19.56Q65.01-20.41 65.91-20.87L65.91-20.87Q67.96-21.95 70.32-22.52 72.68-23.1 75.04-23.1L75.04-23.1ZM73.16-10.69Q70.36-10.69 68.73-9.73 67.11-8.76 67.11-6.67L67.11-6.67Q67.11-4.88 68.34-3.89 69.58-2.91 71.8-2.91L71.8-2.91Q76.66-2.91 80.56-6.93L80.56-6.93 80.56-9.59Q78.9-10.13 77-10.41 75.09-10.69 73.16-10.69L73.16-10.69ZM103.58-23.1Q105.97-23.1 108-22.02 110.03-20.95 111.56-18.95L111.56-18.95 111.56-20.9Q111.56-21.8 111.92-22.18 112.27-22.56 113.1-22.56L113.1-22.56 116.98-22.56Q117.81-22.56 118.17-22.18 118.52-21.8 118.52-20.9L118.52-20.9Q118.52-20 118.17-19.62 117.81-19.24 116.98-19.24L116.98-19.24 114.98-19.24 114.98 0.73Q114.98 3.64 113.75 5.73 112.52 7.81 110.17 8.91 107.83 10.01 104.53 10.01L104.53 10.01Q102.19 10.01 99.8 9.61 97.4 9.2 95.33 8.45L95.33 8.45Q94.38 8.11 94.38 7.15L94.38 7.15Q94.38 6.76 94.57 6.18L94.57 6.18Q95.01 4.83 95.96 4.83L95.96 4.83Q96.23 4.83 96.5 4.93L96.5 4.93Q98.41 5.62 100.51 6.01 102.6 6.4 104.53 6.4L104.53 6.4Q107.9 6.4 109.61 4.8 111.32 3.2 111.32 0.42L111.32 0.42 111.32-4.49Q108.29-0.68 103.58-0.68L103.58-0.68Q100.55-0.68 98.16-2.04 95.77-3.39 94.4-5.93 93.03-8.47 93.03-11.89L93.03-11.89Q93.03-15.31 94.4-17.85 95.77-20.39 98.16-21.74 100.55-23.1 103.58-23.1L103.58-23.1ZM103.83-19.48Q101.65-19.48 100.09-18.52 98.53-17.55 97.71-15.83 96.89-14.11 96.89-11.89L96.89-11.89Q96.89-9.67 97.71-7.95 98.53-6.23 100.09-5.26 101.65-4.3 103.83-4.3L103.83-4.3Q106-4.3 107.7-5.2 109.39-6.1 110.36-7.82 111.32-9.55 111.32-11.89L111.32-11.89Q111.32-14.23 110.36-15.95 109.39-17.68 107.7-18.58 106-19.48 103.83-19.48L103.83-19.48ZM135.78-22.56Q136.61-22.56 136.97-22.18 137.32-21.8 137.32-20.9L137.32-20.9 137.32-3.32 145.16-3.32Q145.99-3.32 146.34-2.94 146.69-2.56 146.69-1.66L146.69-1.66Q146.69-0.76 146.34-0.38 145.99 0 145.16 0L145.16 0 126.02 0Q125.19 0 124.83-0.38 124.48-0.76 124.48-1.66L124.48-1.66Q124.48-2.56 124.83-2.94 125.19-3.32 126.02-3.32L126.02-3.32 133.66-3.32 133.66-19.24 127.48-19.24Q126.65-19.24 126.3-19.62 125.94-20 125.94-20.9L125.94-20.9Q125.94-21.8 126.3-22.18 126.65-22.56 127.48-22.56L127.48-22.56 135.78-22.56ZM135-33.28Q136.34-33.28 136.83-32.92 137.32-32.57 137.32-31.69L137.32-31.69 137.32-28.52Q137.32-27.64 136.83-27.28 136.34-26.93 135-26.93L135-26.93Q133.66-26.93 133.17-27.28 132.68-27.64 132.68-28.52L132.68-28.52 132.68-31.69Q132.68-32.57 133.17-32.92 133.66-33.28 135-33.28L135-33.28ZM169.42-32.15Q172.69-32.15 175.92-30.91L175.92-30.91Q177.09-30.47 177.09-29.3L177.09-29.3Q177.09-29.03 177.01-28.66L177.01-28.66Q176.67-27.27 175.79-27.27L175.79-27.27Q175.52-27.27 175.21-27.39L175.21-27.39Q172.11-28.59 169.42-28.59L169.42-28.59Q164.49-28.59 164.49-23.29L164.49-23.29 164.49-20.61 172.94-20.61Q173.77-20.61 174.12-20.23 174.47-19.85 174.47-18.95L174.47-18.95Q174.47-18.04 174.12-17.66 173.77-17.29 172.94-17.29L172.94-17.29 164.49-17.29 164.49-3.32 172.94-3.32Q173.77-3.32 174.12-2.94 174.47-2.56 174.47-1.66L174.47-1.66Q174.47-0.76 174.12-0.38 173.77 0 172.94 0L172.94 0 155.99 0Q155.16 0 154.81-0.38 154.46-0.76 154.46-1.66L154.46-1.66Q154.46-2.56 154.81-2.94 155.16-3.32 155.99-3.32L155.99-3.32 160.83-3.32 160.83-17.29 155.99-17.29Q155.16-17.29 154.81-17.66 154.46-18.04 154.46-18.95L154.46-18.95Q154.46-19.85 154.81-20.23 155.16-20.61 155.99-20.61L155.99-20.61 160.83-20.61 160.83-23.61Q160.83-27.64 163.09-29.9 165.34-32.15 169.42-32.15L169.42-32.15ZM207.09-22.56Q207.92-22.56 208.27-22.18 208.63-21.8 208.63-20.9L208.63-20.9Q208.63-20 208.27-19.62 207.92-19.24 207.09-19.24L207.09-19.24 205.58-19.24 195.59 1.22Q194 4.47 192.49 6.32 190.98 8.18 189.08 9.05 187.19 9.91 184.48 10.01L184.48 10.01Q183.63 10.03 183.16 9.58 182.7 9.13 182.7 7.98L182.7 7.98Q182.7 6.4 183.99 6.32L183.99 6.32Q186.34 6.2 187.72 5.54 189.1 4.88 190.26 3.28 191.42 1.68 193.1-1.71L193.1-1.71 184.16-19.24 182.63-19.24Q181.8-19.24 181.44-19.62 181.09-20 181.09-20.9L181.09-20.9Q181.09-21.8 181.44-22.18 181.8-22.56 182.63-22.56L182.63-22.56 191.27-22.56Q192.1-22.56 192.45-22.18 192.81-21.8 192.81-20.9L192.81-20.9Q192.81-20 192.45-19.62 192.1-19.24 191.27-19.24L191.27-19.24 188.14-19.24 195.03-5.52 201.6-19.24 199.42-19.24Q198.59-19.24 198.24-19.62 197.89-20 197.89-20.9L197.89-20.9Q197.89-21.8 198.24-22.18 198.59-22.56 199.42-22.56L199.42-22.56 207.09-22.56ZM225.47-28.98Q226.45-28.98 227.05-28.6 227.64-28.22 227.94-27.39L227.94-27.39 236.55-3.32 238.04-3.32Q238.87-3.32 239.23-2.94 239.58-2.56 239.58-1.66L239.58-1.66Q239.58-0.76 239.23-0.38 238.87 0 238.04 0L238.04 0 229.4 0Q228.57 0 228.22-0.38 227.86-0.76 227.86-1.66L227.86-1.66Q227.86-2.56 228.22-2.94 228.57-3.32 229.4-3.32L229.4-3.32 232.7-3.32 230.7-9.13 218.85-9.13 216.83-3.32 219.78-3.32Q220.61-3.32 220.97-2.94 221.32-2.56 221.32-1.66L221.32-1.66Q221.32-0.76 220.97-0.38 220.61 0 219.78 0L219.78 0 211.63 0Q210.8 0 210.44-0.38 210.09-0.76 210.09-1.66L210.09-1.66Q210.09-2.56 210.44-2.94 210.8-3.32 211.63-3.32L211.63-3.32 213-3.32 221.08-25.66 216.51-25.66Q215.68-25.66 215.33-26.04 214.97-26.42 214.97-27.32L214.97-27.32Q214.97-28.22 215.33-28.6 215.68-28.98 216.51-28.98L216.51-28.98 225.47-28.98ZM225.03-25.66L224.57-25.66 220-12.45 229.57-12.45 225.03-25.66ZM255.69-22.56Q256.52-22.56 256.88-22.18 257.23-21.8 257.23-20.9L257.23-20.9 257.23-3.32 265.07-3.32Q265.9-3.32 266.25-2.94 266.61-2.56 266.61-1.66L266.61-1.66Q266.61-0.76 266.25-0.38 265.9 0 265.07 0L265.07 0 245.93 0Q245.1 0 244.74-0.38 244.39-0.76 244.39-1.66L244.39-1.66Q244.39-2.56 244.74-2.94 245.1-3.32 245.93-3.32L245.93-3.32 253.57-3.32 253.57-19.24 247.39-19.24Q246.56-19.24 246.21-19.62 245.85-20 245.85-20.9L245.85-20.9Q245.85-21.8 246.21-22.18 246.56-22.56 247.39-22.56L247.39-22.56 255.69-22.56ZM254.91-33.28Q256.25-33.28 256.74-32.92 257.23-32.57 257.23-31.69L257.23-31.69 257.23-28.52Q257.23-27.64 256.74-27.28 256.25-26.93 254.91-26.93L254.91-26.93Q253.57-26.93 253.08-27.28 252.59-27.64 252.59-28.52L252.59-28.52 252.59-31.69Q252.59-32.57 253.08-32.92 253.57-33.28 254.91-33.28L254.91-33.28Z" opacity="1" transform="matrix(1,0,0,1,0,0)" fill="black" class="wordmark-text-0" id="SvgjsPath1083"></path></svg></g></svg></g></svg></g></svg></g><g transform="matrix(1,0,0,1,0,0.1635288577634526)"><svg viewBox="0 0 62.44905431814033 65.41154310538313" height="65.41154310538313" width="62.44905431814033"><g><svg version="1.0" xmlns="http://www.w3.org/2000/svg" xmlns:xlink="http://www.w3.org/1999/xlink" x="0" y="0" viewBox="0 0 95.471 100" enable-background="new 0 0 95.471 100" xml:space="preserve" width="62.44905431814033" height="65.41154310538313" class="icon-icon-0" data-fill-palette-color="accent" id="SvgjsSvg1082"><path d="M47.735 0c-0.083 2.825-1.738 13.412-19.799 30.934C10.554 47.797 2.439 49.824 0 50c2.439 0.178 10.554 2.204 27.936 19.066C45.997 86.589 47.652 97.177 47.735 100c0.083-2.823 1.739-13.411 19.798-30.934C84.917 52.204 93.031 50.178 95.471 50c-2.439-0.176-10.554-2.203-27.938-19.066C49.475 13.412 47.819 2.825 47.735 0z" fill="black"></path></svg></g></svg></g></svg></g><defs><mask></mask></defs></svg><rect width="395.52" height="52.55345060100458" fill="black" stroke="none" visibility="hidden"></rect></g></mask></svg><rect width="395.52" height="52.55345060100458" fill="black" stroke="none" visibility="hidden"></rect></g></mask><linearGradient x1="0" x2="1" y1="0.578" y2="0.595" id="4df98dad-8246-410f-a27b-57a1416d72b3"><stop stop-color="#6ee2f5" offset="0"></stop><stop stop-color="#6454f0" offset="1"></stop></linearGradient><rect width="395.52" height="52.55345060100458" fill="url(#4df98dad-8246-410f-a27b-57a1416d72b3)" mask="url(#a636183a-e751-43e5-b8df-a3688f04bb98)" data-fill-palette-color="accent"></rect></svg><rect width="395.52" height="52.55345060100458" fill="none" stroke="none" visibility="hidden"></rect></g></svg></g></svg>